<?xml version="1.0" encoding="utf-8"?>
<!-- Generator: Adobe Illustrator 26.0.1, SVG Export Plug-In . SVG Version: 6.00 Build 0)  -->
<svg version="1.1" id="Layer_1" xmlns="http://www.w3.org/2000/svg" xmlns:xlink="http://www.w3.org/1999/xlink" x="0px" y="0px"
	 viewBox="0 0 1377.4 1870.4" style="enable-background:new 0 0 1377.4 1870.4;" xml:space="preserve">
<style type="text/css">
	.st0{fill:#FFFFFF;stroke:#000000;stroke-width:6;stroke-miterlimit:10;}
	.st1{fill:#113420;}
	.st2{font-family:'Montserrat-Regular';}
	.st3{font-size:71.6423px;}
	.st4{fill:#5BA13A;}
	.st5{fill:#5BA13A;stroke:#123321;stroke-miterlimit:10;}
	.st6{fill:#103320;stroke:#5AA139;stroke-miterlimit:10;}
	.st7{fill:none;stroke:#5BA13A;stroke-width:4;stroke-miterlimit:10;}
	.st8{fill:none;stroke:#103320;stroke-width:4;stroke-miterlimit:10;}
	.st9{font-size:25.7362px;}
	.st10{fill:none;stroke:#113420;stroke-width:5;stroke-miterlimit:10;}
	.st11{font-size:98.2764px;}
	.st12{fill:none;stroke:#5BA13A;stroke-width:6;stroke-miterlimit:10;}
	.st13{fill:none;stroke:#103320;stroke-width:6;stroke-miterlimit:10;}
	.st14{font-family:'CourierNewPSMT';}
	.st15{font-size:107.5006px;}
	.st16{font-size:36.5826px;}
	.st17{font-size:17.705px;}
	.st18{font-size:148.0292px;}
	.st19{fill:none;stroke:#123321;stroke-width:4;stroke-miterlimit:10;}
	.st20{fill:none;stroke:#5AA139;stroke-width:4;stroke-miterlimit:10;}
	.st21{font-size:66.5843px;}
</style>
<path class="st0" d="M486.9,441.2H136.3c-25.5,0-46.2-20.7-46.2-46.2V82.6c0-25.5,20.7-46.2,46.2-46.2h350.6
	c25.5,0,46.2,20.7,46.2,46.2V395C533.1,420.5,512.4,441.2,486.9,441.2z"/>
<path class="st0" d="M485.5,898H134.8c-25.5,0-46.2-20.7-46.2-46.2V539.4c0-25.5,20.7-46.2,46.2-46.2h350.6
	c25.5,0,46.2,20.7,46.2,46.2v312.4C531.6,877.4,511,898,485.5,898z"/>
<path class="st0" d="M1242.5,884H891.9c-25.5,0-46.2-20.7-46.2-46.2V525.4c0-25.5,20.7-46.2,46.2-46.2h350.6
	c25.5,0,46.2,20.7,46.2,46.2v312.4C1288.7,863.4,1268,884,1242.5,884z"/>
<path class="st0" d="M1233.4,441.2H882.8c-25.5,0-46.2-20.7-46.2-46.2V82.6c0-25.5,20.7-46.2,46.2-46.2h350.6
	c25.5,0,46.2,20.7,46.2,46.2V395C1279.6,420.5,1258.9,441.2,1233.4,441.2z"/>
<text transform="matrix(1.0084 0 0 1 130.3001 301.6786)"><tspan x="0" y="0" class="st1 st2 st3">Fash</tspan><tspan x="167.9" y="0" class="st4 st2 st3">Cycle</tspan></text>
<g>
	<path class="st5" d="M301.5,149.1C301.5,149.1,301.5,149.1,301.5,149.1c0-0.1,2.9-12.3,16.6-13c13.7-0.7,32.1,3.5,36.9-8.8
		c0,0-0.5,20.7-21.9,21.8C311.8,150.1,315.7,148.2,301.5,149.1z"/>
	<path class="st6" d="M286,166.8c0,0-2.2-10.9,10.2-11.5c12.4-0.6,49.7,3.1,54.4-4.6c0,0,0,0,0,0c0,0.1-4.7,23.6-25.4,23.2
		c0,0,9.5,21.5,1.1,39.1c0,0-0.5-24.8-19-40S286,166.8,286,166.8z"/>
</g>
<g>
	<path class="st7" d="M341.2,115.2h19.7c7.4,0,13.3,6,13.3,13.4v20.8"/>
	<path class="st8" d="M374.2,181.9v22.3c0,7.4-6,13.4-13.3,13.4h-18.3"/>
	<path class="st8" d="M301.6,115.2h-19.7c-7.4,0-13.3,6-13.3,13.4v20.8"/>
	<path class="st7" d="M268.6,181.9v22.3c0,7.4,6,13.4,13.3,13.4h18.3"/>
</g>
<g>
	<g>
		<text transform="matrix(1.0084 0 0 1 133.9641 342.517)" class="st4 st2 st9">BUY            RENT            SELL</text>
	</g>
	<line class="st10" x1="230.9" y1="324.1" x2="230.9" y2="342.7"/>
	<line class="st10" x1="391.3" y1="324.1" x2="391.3" y2="342.7"/>
</g>
<g>
	<text transform="matrix(1.0084 0 0 1 280.4077 1473.3834)" class="st1 st2 st11">Fash</text>
	<g>
		<path class="st5" d="M149.6,1453.5C149.6,1453.5,149.6,1453.5,149.6,1453.5c0-0.1,4.3-18.4,24.9-19.4c20.6-1,48.2,5.2,55.3-13.2
			c0,0-0.7,31-32.8,32.6C165,1455.2,171,1452.2,149.6,1453.5z"/>
		<path class="st6" d="M126.3,1480.1c0,0-3.3-16.3,15.3-17.2c18.5-0.9,74.4,4.6,81.6-7c0,0,0,0,0,0c0,0.1-7,35.4-38.1,34.8
			c0,0,14.2,32.2,1.6,58.6c0,0-0.7-37.2-28.5-59.9C130.5,1466.7,126.3,1480.1,126.3,1480.1z"/>
	</g>
	<g>
		<path class="st12" d="M209.1,1402.8h29.5c11,0,20,9,20,20.2v31.2"/>
		<path class="st13" d="M258.6,1502.8v33.5c0,11.1-8.9,20.2-20,20.2h-27.5"/>
		<path class="st13" d="M149.7,1402.8h-29.5c-11,0-20,9-20,20.2v31.2"/>
		<path class="st12" d="M100.2,1502.8v33.5c0,11.1,8.9,20.2,20,20.2h27.5"/>
	</g>
	<path class="st10" d="M601.6,1583H101.5c-13,0-23.5-10.5-23.5-23.5v-157.3c0-13,10.5-23.5,23.5-23.5h500.1
		c13,0,23.5,10.5,23.5,23.5v157.3C625.1,1572.5,614.6,1583,601.6,1583z"/>
	<text transform="matrix(1.0084 0 0 1 275.8078 1556.4314)" class="st4 st14 st15">Cycle</text>
	<text transform="matrix(1.0084 0 0 1 310.6935 1619.1678)" class="st14 st16">Future Fashion</text>
</g>
<text transform="matrix(1.0084 0 0 1 879.3441 291.9378)"><tspan x="0" y="0" class="st1 st2 st3">Fash</tspan><tspan x="167.9" y="0" class="st4 st2 st3">Cycle</tspan></text>
<g>
	<path class="st5" d="M1050.6,139.3C1050.6,139.3,1050.5,139.3,1050.6,139.3c0-0.1,2.9-12.3,16.6-13c13.7-0.7,32.1,3.5,36.9-8.8
		c0,0-0.5,20.7-21.9,21.8C1060.8,140.4,1064.8,138.4,1050.6,139.3z"/>
	<path class="st6" d="M1035,157c0,0-2.2-10.9,10.2-11.5c12.4-0.6,49.7,3.1,54.4-4.6c0,0,0,0,0,0c0,0.1-4.7,23.6-25.4,23.2
		c0,0,9.5,21.5,1.1,39.1c0,0-0.5-24.8-19-40S1035,157,1035,157z"/>
</g>
<g>
	<path class="st7" d="M1090.2,105.5h19.7c7.4,0,13.3,6,13.3,13.4v20.8"/>
	<path class="st8" d="M1123.3,172.2v22.3c0,7.4-6,13.4-13.3,13.4h-18.3"/>
	<path class="st8" d="M1050.6,105.5h-19.7c-7.4,0-13.3,6-13.3,13.4v20.8"/>
	<path class="st7" d="M1017.6,172.2v22.3c0,7.4,6,13.4,13.3,13.4h18.3"/>
</g>
<text transform="matrix(1.0084 0 0 1 992.2943 329.9017)" class="st14 st17">Future Fashion</text>
<text transform="matrix(1.0084 0 0 1 120.7841 755.7527)"><tspan x="0" y="0" class="st1 st2 st3">Fash</tspan><tspan x="167.9" y="0" class="st4 st2 st3">Cycle</tspan></text>
<g>
	<path class="st5" d="M292,603.1C292,603.1,292,603.1,292,603.1c0-0.1,2.9-12.3,16.6-13c13.7-0.7,32.1,3.5,36.9-8.8
		c0,0-0.5,20.7-21.9,21.8C302.3,604.2,306.2,602.2,292,603.1z"/>
	<path class="st6" d="M276.5,620.8c0,0-2.2-10.9,10.2-11.5c12.4-0.6,49.7,3.1,54.4-4.6c0,0,0,0,0,0c0,0.1-4.7,23.6-25.4,23.2
		c0,0,9.5,21.5,1.1,39.1c0,0-0.5-24.8-19-40C279.2,611.9,276.5,620.8,276.5,620.8z"/>
</g>
<g>
	<path class="st7" d="M331.7,569.3h19.7c7.4,0,13.3,6,13.3,13.4v20.8"/>
	<path class="st8" d="M364.7,636v22.3c0,7.4-6,13.4-13.3,13.4H333"/>
	<path class="st8" d="M292.1,569.3h-19.7c-7.4,0-13.3,6-13.3,13.4v20.8"/>
	<path class="st7" d="M259.1,636v22.3c0,7.4,6,13.4,13.3,13.4h18.3"/>
</g>
<text transform="matrix(1.0084 0 0 1 334.4101 793.9988)" class="st14 st17">Future Fashion</text>
<text transform="matrix(1.0084 0 0 1 998.5273 1475.0055)" class="st1 st2 st11">Fash</text>
<g>
	<path class="st5" d="M826.8,1455.2C826.8,1455.2,826.8,1455.2,826.8,1455.2c0-0.1,4.3-18.4,24.9-19.4c20.6-1,48.2,5.2,55.3-13.2
		c0,0-0.7,31-32.8,32.6C842.2,1456.8,848.2,1453.8,826.8,1455.2z"/>
	<path class="st6" d="M803.5,1481.7c0,0-3.3-16.3,15.3-17.2c18.5-0.9,74.4,4.6,81.6-7c0,0,0,0,0,0c0,0.1-7,35.4-38.1,34.8
		c0,0,14.2,32.2,1.6,58.6c0,0-0.7-37.2-28.5-59.9C807.7,1468.3,803.5,1481.7,803.5,1481.7z"/>
</g>
<g>
	<path class="st12" d="M886.3,1404.4h29.5c11,0,20,9,20,20.2v31.2"/>
	<path class="st13" d="M935.8,1504.4v33.5c0,11.1-8.9,20.2-20,20.2h-27.5"/>
	<path class="st13" d="M827,1404.4h-29.5c-11,0-20,9-20,20.2v31.2"/>
	<path class="st12" d="M777.5,1504.4v33.5c0,11.1,8.9,20.2,20,20.2h27.5"/>
</g>
<path class="st10" d="M1278.8,1584.6H778.7c-13,0-23.5-10.5-23.5-23.5v-157.3c0-13,10.5-23.5,23.5-23.5h500.1
	c13,0,23.5,10.5,23.5,23.5v157.3C1302.3,1574.1,1291.8,1584.6,1278.8,1584.6z"/>
<text transform="matrix(1.0084 0 0 1 947.3937 1558.0533)" class="st4 st14 st15">Cycle</text>
<text transform="matrix(1.0084 0 0 1 870.805 1625.2518)" class="st14 st16">Future Fashion</text>
<g>
	<path class="st0" d="M1131.5,1212.2H245.9c-25.5,0-46.2-20.7-46.2-46.2v-116.8c0-25.5,20.7-46.2,46.2-46.2h885.6
		c25.5,0,46.2,20.7,46.2,46.2V1166C1177.6,1191.5,1157,1212.2,1131.5,1212.2z"/>
	<text transform="matrix(1.0084 0 0 1 401.3312 1145.1132)"><tspan x="0" y="0" class="st1 st2 st18">Fash</tspan><tspan x="346.8" y="0" class="st4 st2 st18">Cycle</tspan></text>
	<g>
		<path class="st5" d="M279,1076C279,1076,279,1076,279,1076c0-0.1,4.3-18.4,24.9-19.4c20.6-1,48.2,5.2,55.3-13.2
			c0,0-0.7,31-32.8,32.6C294.5,1077.6,300.4,1074.7,279,1076z"/>
		<path class="st6" d="M255.8,1102.6c0,0-3.3-16.3,15.3-17.2c18.5-0.9,74.4,4.6,81.6-7c0,0,0,0,0,0c0,0.1-7,35.4-38.1,34.8
			c0,0,14.2,32.2,1.6,58.6c0,0-0.7-37.2-28.5-59.9S255.8,1102.6,255.8,1102.6z"/>
	</g>
	<g>
		<path class="st12" d="M338.5,1025.3h29.5c11,0,20,9,20,20.2v31.2"/>
		<path class="st13" d="M388,1125.3v33.5c0,11.1-8.9,20.2-20,20.2h-27.5"/>
		<path class="st13" d="M279.2,1025.3h-29.5c-11,0-20,9-20,20.2v31.2"/>
		<path class="st12" d="M229.7,1125.3v33.5c0,11.1,8.9,20.2,20,20.2h27.5"/>
	</g>
	<text transform="matrix(1.0084 0 0 1 415.8077 1187.0476)" class="st14 st16">Future Fashion</text>
</g>
<g>
	<path class="st5" d="M1056.4,584.6C1056.4,584.6,1056.4,584.6,1056.4,584.6c0,0,2.5-10.7,14.5-11.3c12-0.6,28.1,3,32.3-7.7
		c0,0-0.4,18.1-19.1,19C1065.4,585.6,1068.8,583.9,1056.4,584.6z"/>
	<path class="st6" d="M1042.8,600.1c0,0-1.9-9.5,8.9-10c10.8-0.5,43.5,2.7,47.6-4.1c0,0,0,0,0,0c0,0.1-4.1,20.7-22.3,20.3
		c0,0,8.3,18.8,1,34.2c0,0-0.4-21.7-16.6-35C1045.2,592.3,1042.8,600.1,1042.8,600.1z"/>
</g>
<g>
	<ellipse class="st19" cx="1077.2" cy="598.7" rx="51.9" ry="52.5"/>
</g>
<path class="st20" d="M1077.2,546.2c28.7,0,51.9,23.5,51.9,52.5c0,29-23.3,52.5-51.9,52.5"/>
<text transform="matrix(1.0084 0 0 1 906.0669 731.0527)"><tspan x="0" y="0" class="st1 st2 st21">Fash</tspan><tspan x="156" y="0" class="st4 st2 st21">Cycle</tspan></text>
<text transform="matrix(1.0084 0 0 1 922.2842 771.7159)" class="st14 st16">Future Fashion</text>
</svg>
